<svg width="76" height="76" viewBox="0 0 76 76" fill="none" xmlns="http://www.w3.org/2000/svg">
<path d="M47.5 44.3333C47.5 49.5805 43.2472 53.8333 38 53.8333C32.7528 53.8333 28.5 49.5805 28.5 44.3333C28.5 39.0862 32.7528 34.8333 38 34.8333C43.2472 34.8333 47.5 39.0862 47.5 44.3333Z" fill="white"/>
<path d="M47.5 28.5V19H28.5V28.5H12.6667V57H28.5C31.0333 58.9 34.5167 60.1667 38 60.1667C41.4833 60.1667 44.9667 58.9 47.5 57H63.3333V28.5H47.5ZM31.6667 22.1667H44.3333V28.5H31.6667V22.1667ZM38 57C31.0333 57 25.3333 51.3 25.3333 44.3333C25.3333 37.3667 31.0333 31.6667 38 31.6667C44.9667 31.6667 50.6667 37.3667 50.6667 44.3333C50.6667 51.3 44.9667 57 38 57ZM60.1667 34.8333H53.8333V31.6667H60.1667V34.8333Z" fill="white"/>
</svg>
