<svg width="76" height="76" viewBox="0 0 76 76" fill="none" xmlns="http://www.w3.org/2000/svg">
<path d="M38 12.6667C24.0097 12.6667 12.6667 24.0097 12.6667 38C12.6667 51.9903 24.0097 63.3333 38 63.3333C51.9903 63.3333 63.3333 51.9903 63.3333 38C63.3333 24.0097 51.9903 12.6667 38 12.6667ZM59.5333 42.75C59.5333 44.3333 57.3167 44.84 53.2 45.9167C53.5927 44.0515 53.8523 41.8728 53.9252 39.6467L60.2617 39.5833C60.2617 40.7233 60.0083 41.1667 59.755 42.75H59.5333ZM16.4667 42.75C16.15 41.1667 15.9917 40.7233 15.8333 39.5833H22.1667C22.2427 41.8728 22.5023 44.0515 22.9393 46.1668C18.6833 44.84 16.4667 44.3333 16.4667 42.75ZM16.4667 33.25C16.4667 31.6667 18.6833 31.16 22.8 30.0833C22.4358 31.9643 22.2078 34.1493 22.1667 36.3818L15.8333 36.4167C15.8333 35.2767 16.0867 34.8333 16.34 33.25H16.4667ZM39.5833 28.5C43.1617 28.5412 46.6323 28.8388 50.027 29.3772C50.1758 31.4133 50.5495 33.8422 50.6635 36.3407L39.5833 36.4198V28.5032V28.5ZM39.5833 25.3333V16.0233C43.2883 16.8783 46.55 20.6783 48.5767 25.9983C45.9293 25.631 42.8165 25.3903 39.6562 25.3333H39.5833ZM36.4167 16.0233V25.3333C33.1962 25.3808 30.0802 25.6088 27.018 26.011C29.45 20.6783 32.7117 16.8783 36.4167 16.0233ZM36.4167 28.5V36.4167H25.3333C25.4315 33.8643 25.783 31.4418 26.3657 29.1112C29.317 28.8578 32.8098 28.5507 36.366 28.5H36.4167ZM25.3333 39.5833H36.4167V47.5C32.8383 47.4588 29.3677 47.1612 25.973 46.6228C25.8242 44.5867 25.4505 42.1578 25.3365 39.6593L25.3333 39.5833ZM36.4167 50.6667V59.9767C32.7117 59.1217 29.45 55.3217 27.4233 50.0017C30.0707 50.369 33.1835 50.6097 36.3438 50.6667H36.4167ZM39.5833 59.9767V50.6667C42.8038 50.6192 45.9198 50.3912 48.982 49.989C46.55 55.3217 43.2883 59.1217 39.5833 59.9767ZM39.5833 47.5V39.5833H50.6667C50.5685 42.1357 50.217 44.5582 49.6343 46.8888C46.683 47.1422 43.1902 47.4493 39.634 47.5H39.5833ZM60.1667 36.4167H53.8333C53.7573 34.1272 53.4977 31.9485 53.0607 29.8332C57.3483 31.0967 59.4383 31.6033 59.4383 33.25C59.85 34.8333 60.0083 35.2767 60.1667 36.4167ZM57.95 28.215C56.3477 27.569 54.4477 27.0117 52.4843 26.6317C51.3412 23.4048 49.9225 20.6213 48.0858 18.1703C52.3767 20.4693 55.727 23.9052 57.798 28.0852L57.95 28.215ZM27.9933 18.24C26.1947 20.6213 24.7665 23.4048 23.8608 26.4132C21.6473 27.0117 19.7473 27.569 17.9265 28.291C20.3047 23.8893 23.6993 20.4535 27.8667 18.297L27.9933 18.24ZM18.145 47.785C19.7473 48.431 21.6473 48.9883 23.6107 49.3683C24.7538 52.5952 26.1725 55.3787 28.0092 57.8297C23.6803 55.5433 20.2952 52.1075 18.202 47.9148L18.145 47.785ZM48.0383 57.76C49.8243 55.3755 51.243 52.5952 52.1392 49.5868C54.3527 48.9883 56.2527 48.431 58.0735 47.709C55.6953 52.1107 52.3007 55.5465 48.1333 57.703L48.0383 57.76Z" fill="white"/>
</svg>
