<svg width="76" height="76" viewBox="0 0 76 76" fill="none" xmlns="http://www.w3.org/2000/svg">
<path d="M63.2905 22.537C63.2905 22.537 56.6405 19.0537 52.2071 19.3704C51.2571 19.3704 50.6238 19.687 49.9905 20.0037L36.3738 30.7704L30.6738 26.0204C30.9905 25.0704 31.3071 24.1204 31.6238 22.8537C31.9405 17.1537 27.1905 12.087 21.1738 12.7204C17.3738 13.037 13.8905 15.887 12.9405 19.687C11.9905 23.8037 13.5738 27.6037 16.7405 29.8204L27.1905 38.0537L16.7405 46.287C13.5738 48.5037 11.9905 52.3037 12.9405 56.4204C13.8905 60.2204 17.3738 62.7537 21.1738 63.387C27.1905 64.0204 31.9405 58.9537 31.3071 53.2537C31.3071 52.3037 30.9905 51.037 30.3571 50.087L36.0571 45.337L49.6738 56.1037C50.3071 56.4204 50.9405 56.737 51.8905 56.737C56.3238 57.0537 62.9738 53.5704 62.9738 53.5704L44.9238 38.0537L63.2905 22.537ZM21.4905 27.287C18.6405 26.9704 16.4238 24.437 16.7405 21.587C17.0571 18.737 19.5905 16.5204 22.4405 16.837C25.2905 17.1537 27.5071 19.687 27.1905 22.537C27.1905 25.387 24.3405 27.6037 21.4905 27.287ZM22.4405 59.2704C19.5905 59.587 17.0571 57.3704 16.7405 54.5204C16.4238 51.6704 18.6405 49.137 21.4905 48.8204C24.3405 48.5037 26.8738 50.7204 27.1905 53.5704C27.5071 56.4204 25.2905 58.9537 22.4405 59.2704ZM51.8905 22.8537C51.8905 22.8537 52.2071 22.8537 52.5238 22.8537C53.7905 22.8537 55.3738 23.1704 56.9571 23.487L35.4238 41.537L32.5738 38.0537L51.8905 22.8537ZM56.9571 52.6204C55.3738 53.2537 53.7905 53.5704 52.5238 53.2537C52.2071 53.2537 51.8905 53.2537 51.8905 53.2537L39.2238 43.1204L42.3905 40.2704L56.9571 52.6204Z" fill="white"/>
</svg>
